  0
SECTION
  2
HEADER
  9
$ACADVER
  1
AC1009
  9
$EXTMIN
 10
0.0
 20
0.0
 30
0.0
  9
$EXTMAX
 10
1000.0
 20
1000.0
 30
0.0
  9
$FILLMODE
 70
 0
  9
$SPLFRAME
 70
 1
  0
ENDSEC
  0
SECTION
  2
TABLES
  0
TABLE
  2
LAYER
 70
1
  0
LAYER
  2
0
 70
     0
 62
     7
  6
CONTINUOUS
  0
ENDTAB
  0
ENDSEC
  0
SECTION
  2
ENTITIES
  0
POLYLINE
  8
0
 62
     7
 66
     1
 10
0
 20
0
 30
0.0
 70
     1
 40
0
 41
0
  0
VERTEX
  8
0
 10
2.18522
 20
4.78874
 30
0.0
 40
0
 41
0
  0
VERTEX
  8
0
 10
3.33106
 20
4.78874
 30
0.0
 40
0
 41
0
  0
VERTEX
  8
0
 10
3.35206
 20
4.78874
 30
0.0
 40
0
 41
0
  0
VERTEX
  8
0
 10
3.41521
 20
4.78033
 30
0.0
 40
0
 41
0
  0
VERTEX
  8
0
 10
3.49349
 20
4.75613
 30
0.0
 40
0
 41
0
  0
VERTEX
  8
0
 10
3.56429
 20
4.71778
 30
0.0
 40
0
 41
0
  0
VERTEX
  8
0
 10
3.62592
 20
4.66699
 30
0.0
 40
0
 41
0
  0
VERTEX
  8
0
 10
3.67671
 20
4.60536
 30
0.0
 40
0
 41
0
  0
VERTEX
  8
0
 10
3.71506
 20
4.53456
 30
0.0
 40
0
 41
0
  0
VERTEX
  8
0
 10
3.73926
 20
4.45628
 30
0.0
 40
0
 41
0
  0
VERTEX
  8
0
 10
3.74772
 20
4.39312
 30
0.0
 40
0
 41
0
  0
VERTEX
  8
0
 10
3.74772
 20
4.37207
 30
0.0
 40
0
 41
0
  0
VERTEX
  8
0
 10
3.74772
 20
4.35107
 30
0.0
 40
0
 41
0
  0
VERTEX
  8
0
 10
3.73926
 20
4.28792
 30
0.0
 40
0
 41
0
  0
VERTEX
  8
0
 10
3.71506
 20
4.20958
 30
0.0
 40
0
 41
0
  0
VERTEX
  8
0
 10
3.67671
 20
4.13883
 30
0.0
 40
0
 41
0
  0
VERTEX
  8
0
 10
3.62592
 20
4.07721
 30
0.0
 40
0
 41
0
  0
VERTEX
  8
0
 10
3.56429
 20
4.02642
 30
0.0
 40
0
 41
0
  0
VERTEX
  8
0
 10
3.49349
 20
3.98807
 30
0.0
 40
0
 41
0
  0
VERTEX
  8
0
 10
3.41521
 20
3.96386
 30
0.0
 40
0
 41
0
  0
VERTEX
  8
0
 10
3.35206
 20
3.9554
 30
0.0
 40
0
 41
0
  0
VERTEX
  8
0
 10
3.33106
 20
3.9554
 30
0.0
 40
0
 41
0
  0
VERTEX
  8
0
 10
2.18522
 20
3.9554
 30
0.0
 40
0
 41
0
  0
VERTEX
  8
0
 10
2.16417
 20
3.9554
 30
0.0
 40
0
 41
0
  0
VERTEX
  8
0
 10
2.10101
 20
3.96386
 30
0.0
 40
0
 41
0
  0
VERTEX
  8
0
 10
2.02268
 20
3.98807
 30
0.0
 40
0
 41
0
  0
VERTEX
  8
0
 10
1.95193
 20
4.02642
 30
0.0
 40
0
 41
0
  0
VERTEX
  8
0
 10
1.89031
 20
4.07721
 30
0.0
 40
0
 41
0
  0
VERTEX
  8
0
 10
1.83951
 20
4.13883
 30
0.0
 40
0
 41
0
  0
VERTEX
  8
0
 10
1.80117
 20
4.20958
 30
0.0
 40
0
 41
0
  0
VERTEX
  8
0
 10
1.77696
 20
4.28792
 30
0.0
 40
0
 41
0
  0
VERTEX
  8
0
 10
1.76856
 20
4.35107
 30
0.0
 40
0
 41
0
  0
VERTEX
  8
0
 10
1.76856
 20
4.37207
 30
0.0
 40
0
 41
0
  0
VERTEX
  8
0
 10
1.76856
 20
4.39312
 30
0.0
 40
0
 41
0
  0
VERTEX
  8
0
 10
1.77696
 20
4.45628
 30
0.0
 40
0
 41
0
  0
VERTEX
  8
0
 10
1.80117
 20
4.53456
 30
0.0
 40
0
 41
0
  0
VERTEX
  8
0
 10
1.83951
 20
4.60536
 30
0.0
 40
0
 41
0
  0
VERTEX
  8
0
 10
1.89031
 20
4.66699
 30
0.0
 40
0
 41
0
  0
VERTEX
  8
0
 10
1.95193
 20
4.71778
 30
0.0
 40
0
 41
0
  0
VERTEX
  8
0
 10
2.02268
 20
4.75613
 30
0.0
 40
0
 41
0
  0
VERTEX
  8
0
 10
2.10101
 20
4.78033
 30
0.0
 40
0
 41
0
  0
VERTEX
  8
0
 10
2.16417
 20
4.78874
 30
0.0
 40
0
 41
0
  0
VERTEX
  8
0
 10
2.18522
 20
4.78874
 30
0.0
 40
0
 41
0
  0
SEQEND
 8
0
  0
POLYLINE
  8
0
 62
     0
 66
     1
 10
0
 20
0
 30
0.0
 70
     1
 40
2.42432
 41
2.42432
  0
VERTEX
  8
0
 10
2.18522
 20
4.78874
 30
0.0
 40
0.0336711
 41
0.0336711
  0
VERTEX
  8
0
 10
3.33106
 20
4.78874
 30
0.0
 40
0.0336711
 41
0.0336711
  0
VERTEX
  8
0
 10
3.35206
 20
4.78874
 30
0.0
 40
0.0336711
 41
0.0336711
  0
VERTEX
  8
0
 10
3.41521
 20
4.78033
 30
0.0
 40
0.0336711
 41
0.0336711
  0
VERTEX
  8
0
 10
3.49349
 20
4.75613
 30
0.0
 40
0.0336711
 41
0.0336711
  0
VERTEX
  8
0
 10
3.56429
 20
4.71778
 30
0.0
 40
0.0336711
 41
0.0336711
  0
VERTEX
  8
0
 10
3.62592
 20
4.66699
 30
0.0
 40
0.0336711
 41
0.0336711
  0
VERTEX
  8
0
 10
3.67671
 20
4.60536
 30
0.0
 40
0.0336711
 41
0.0336711
  0
VERTEX
  8
0
 10
3.71506
 20
4.53456
 30
0.0
 40
0.0336711
 41
0.0336711
  0
VERTEX
  8
0
 10
3.73926
 20
4.45628
 30
0.0
 40
0.0336711
 41
0.0336711
  0
VERTEX
  8
0
 10
3.74772
 20
4.39312
 30
0.0
 40
0.0336711
 41
0.0336711
  0
VERTEX
  8
0
 10
3.74772
 20
4.37207
 30
0.0
 40
0.0336711
 41
0.0336711
  0
VERTEX
  8
0
 10
3.74772
 20
4.35107
 30
0.0
 40
0.0336711
 41
0.0336711
  0
VERTEX
  8
0
 10
3.73926
 20
4.28792
 30
0.0
 40
0.0336711
 41
0.0336711
  0
VERTEX
  8
0
 10
3.71506
 20
4.20958
 30
0.0
 40
0.0336711
 41
0.0336711
  0
VERTEX
  8
0
 10
3.67671
 20
4.13883
 30
0.0
 40
0.0336711
 41
0.0336711
  0
VERTEX
  8
0
 10
3.62592
 20
4.07721
 30
0.0
 40
0.0336711
 41
0.0336711
  0
VERTEX
  8
0
 10
3.56429
 20
4.02642
 30
0.0
 40
0.0336711
 41
0.0336711
  0
VERTEX
  8
0
 10
3.49349
 20
3.98807
 30
0.0
 40
0.0336711
 41
0.0336711
  0
VERTEX
  8
0
 10
3.41521
 20
3.96386
 30
0.0
 40
0.0336711
 41
0.0336711
  0
VERTEX
  8
0
 10
3.35206
 20
3.9554
 30
0.0
 40
0.0336711
 41
0.0336711
  0
VERTEX
  8
0
 10
3.33106
 20
3.9554
 30
0.0
 40
0.0336711
 41
0.0336711
  0
VERTEX
  8
0
 10
2.18522
 20
3.9554
 30
0.0
 40
0.0336711
 41
0.0336711
  0
VERTEX
  8
0
 10
2.16417
 20
3.9554
 30
0.0
 40
0.0336711
 41
0.0336711
  0
VERTEX
  8
0
 10
2.10101
 20
3.96386
 30
0.0
 40
0.0336711
 41
0.0336711
  0
VERTEX
  8
0
 10
2.02268
 20
3.98807
 30
0.0
 40
0.0336711
 41
0.0336711
  0
VERTEX
  8
0
 10
1.95193
 20
4.02642
 30
0.0
 40
0.0336711
 41
0.0336711
  0
VERTEX
  8
0
 10
1.89031
 20
4.07721
 30
0.0
 40
0.0336711
 41
0.0336711
  0
VERTEX
  8
0
 10
1.83951
 20
4.13883
 30
0.0
 40
0.0336711
 41
0.0336711
  0
VERTEX
  8
0
 10
1.80117
 20
4.20958
 30
0.0
 40
0.0336711
 41
0.0336711
  0
VERTEX
  8
0
 10
1.77696
 20
4.28792
 30
0.0
 40
0.0336711
 41
0.0336711
  0
VERTEX
  8
0
 10
1.76856
 20
4.35107
 30
0.0
 40
0.0336711
 41
0.0336711
  0
VERTEX
  8
0
 10
1.76856
 20
4.37207
 30
0.0
 40
0.0336711
 41
0.0336711
  0
VERTEX
  8
0
 10
1.76856
 20
4.39312
 30
0.0
 40
0.0336711
 41
0.0336711
  0
VERTEX
  8
0
 10
1.77696
 20
4.45628
 30
0.0
 40
0.0336711
 41
0.0336711
  0
VERTEX
  8
0
 10
1.80117
 20
4.53456
 30
0.0
 40
0.0336711
 41
0.0336711
  0
VERTEX
  8
0
 10
1.83951
 20
4.60536
 30
0.0
 40
0.0336711
 41
0.0336711
  0
VERTEX
  8
0
 10
1.89031
 20
4.66699
 30
0.0
 40
0.0336711
 41
0.0336711
  0
VERTEX
  8
0
 10
1.95193
 20
4.71778
 30
0.0
 40
0.0336711
 41
0.0336711
  0
VERTEX
  8
0
 10
2.02268
 20
4.75613
 30
0.0
 40
0.0336711
 41
0.0336711
  0
VERTEX
  8
0
 10
2.10101
 20
4.78033
 30
0.0
 40
0.0336711
 41
0.0336711
  0
VERTEX
  8
0
 10
2.16417
 20
4.78874
 30
0.0
 40
0.0336711
 41
0.0336711
  0
VERTEX
  8
0
 10
2.18522
 20
4.78874
 30
0.0
 40
0.0336711
 41
0.0336711
  0
SEQEND
 8
0
  0
POLYLINE
  8
0
 62
     7
 66
     1
 10
0
 20
0
 30
0.0
 70
     1
 40
0
 41
0
  0
VERTEX
  8
0
 10
2.58806
 20
3.96039
 30
0.0
 40
0
 41
0
  0
VERTEX
  8
0
 10
2.56142
 20
3.9605
 30
0.0
 40
0
 41
0
  0
VERTEX
  8
0
 10
2.4815
 20
3.96582
 30
0.0
 40
0
 41
0
  0
VERTEX
  8
0
 10
2.3909
 20
3.97439
 30
0.0
 40
0
 41
0
  0
VERTEX
  8
0
 10
2.30469
 20
3.9764
 30
0.0
 40
0
 41
0
  0
VERTEX
  8
0
 10
2.23421
 20
3.96778
 30
0.0
 40
0
 41
0
  0
VERTEX
  8
0
 10
2.21153
 20
3.96186
 30
0.0
 40
0
 41
0
  0
VERTEX
  8
0
 10
2.21804
 20
3.95942
 30
0.0
 40
0
 41
0
  0
VERTEX
  8
0
 10
2.23665
 20
3.94954
 30
0.0
 40
0
 41
0
  0
VERTEX
  8
0
 10
2.24393
 20
3.93858
 30
0.0
 40
0
 41
0
  0
VERTEX
  8
0
 10
2.24924
 20
3.92329
 30
0.0
 40
0
 41
0
  0
VERTEX
  8
0
 10
2.26303
 20
3.90369
 30
0.0
 40
0
 41
0
  0
VERTEX
  8
0
 10
2.26856
 20
3.89806
 30
0.0
 40
0
 41
0
  0
VERTEX
  8
0
 10
2.30072
 20
3.8654
 30
0.0
 40
0
 41
0
  0
VERTEX
  8
0
 10
2.37175
 20
3.74208
 30
0.0
 40
0
 41
0
  0
VERTEX
  8
0
 10
2.42947
 20
3.53629
 30
0.0
 40
0
 41
0
  0
VERTEX
  8
0
 10
2.44331
 20
3.28933
 30
0.0
 40
0
 41
0
  0
VERTEX
  8
0
 10
2.41461
 20
3.00993
 30
0.0
 40
0
 41
0
  0
VERTEX
  8
0
 10
2.34489
 20
2.70671
 30
0.0
 40
0
 41
0
  0
VERTEX
  8
0
 10
2.23562
 20
2.38835
 30
0.0
 40
0
 41
0
  0
VERTEX
  8
0
 10
2.08826
 20
2.06358
 30
0.0
 40
0
 41
0
  0
VERTEX
  8
0
 10
1.95389
 20
1.81933
 30
0.0
 40
0
 41
0
  0
VERTEX
  8
0
 10
1.90429
 20
1.741
 30
0.0
 40
0
 41
0
  0
VERTEX
  8
0
 10
1.87381
 20
1.69293
 30
0.0
 40
0
 41
0
  0
VERTEX
  8
0
 10
1.7156
 20
1.46963
 30
0.0
 40
0
 41
0
  0
VERTEX
  8
0
 10
1.55181
 20
1.27067
 30
0.0
 40
0
 41
0
  0
VERTEX
  8
0
 10
1.51856
 20
1.2347
 30
0.0
 40
0
 41
0
  0
VERTEX
  8
0
 10
1.52306
 20
1.2124
 30
0.0
 40
0
 41
0
  0
VERTEX
  8
0
 10
1.55919
 20
1.15007
 30
0.0
 40
0
 41
0
  0
VERTEX
  8
0
 10
1.63331
 20
1.11133
 30
0.0
 40
0
 41
0
  0
VERTEX
  8
0
 10
1.73725
 20
1.10786
 30
0.0
 40
0
 41
0
  0
VERTEX
  8
0
 10
1.86724
 20
1.12891
 30
0.0
 40
0
 41
0
  0
VERTEX
  8
0
 10
2.01964
 20
1.16374
 30
0.0
 40
0
 41
0
  0
VERTEX
  8
0
 10
2.19065
 20
1.20161
 30
0.0
 40
0
 41
0
  0
VERTEX
  8
0
 10
2.37668
 20
1.23188
 30
0.0
 40
0
 41
0
  0
VERTEX
  8
0
 10
2.52462
 20
1.24392
 30
0.0
 40
0
 41
0
  0
VERTEX
  8
0
 10
2.57394
 20
1.24371
 30
0.0
 40
0
 41
0
  0
VERTEX
  8
0
 10
3.14908
 20
1.24105
 30
0.0
 40
0
 41
0
  0
VERTEX
  8
0
 10
3.19211
 20
1.24089
 30
0.0
 40
0
 41
0
  0
VERTEX
  8
0
 10
3.32118
 20
1.23003
 30
0.0
 40
0
 41
0
  0
VERTEX
  8
0
 10
3.47575
 20
1.20432
 30
0.0
 40
0
 41
0
  0
VERTEX
  8
0
 10
3.61301
 20
1.17285
 30
0.0
 40
0
 41
0
  0
VERTEX
  8
0
 10
3.73324
 20
1.14448
 30
0.0
 40
0
 41
0
  0
VERTEX
  8
0
 10
3.83658
 20
1.12793
 30
0.0
 40
0
 41
0
  0
VERTEX
  8
0
 10
3.92333
 20
1.13211
 30
0.0
 40
0
 41
0
  0
VERTEX
  8
0
 10
3.99365
 20
1.16585
 30
0.0
 40
0
 41
0
  0
VERTEX
  8
0
 10
4.03808
 20
1.2181
 30
0.0
 40
0
 41
0
  0
VERTEX
  8
0
 10
4.04785
 20
1.23796
 30
0.0
 40
0
 41
0
  0
VERTEX
  8
0
 10
4.01986
 20
1.26552
 30
0.0
 40
0
 41
0
  0
VERTEX
  8
0
 10
3.94049
 20
1.35292
 30
0.0
 40
0
 41
0
  0
VERTEX
  8
0
 10
3.85579
 20
1.46376
 30
0.0
 40
0
 41
0
  0
VERTEX
  8
0
 10
3.77393
 20
1.58946
 30
0.0
 40
0
 41
0
  0
VERTEX
  8
0
 10
3.69993
 20
1.70904
 30
0.0
 40
0
 41
0
  0
VERTEX
  8
0
 10
3.67513
 20
1.74875
 30
0.0
 40
0
 41
0
  0
VERTEX
  8
0
 10
3.62597
 20
1.82742
 30
0.0
 40
0
 41
0
  0
VERTEX
  8
0
 10
3.49317
 20
2.07249
 30
0.0
 40
0
 41
0
  0
VERTEX
  8
0
 10
3.34744
 20
2.39844
 30
0.0
 40
0
 41
0
  0
VERTEX
  8
0
 10
3.23942
 20
2.71793
 30
0.0
 40
0
 41
0
  0
VERTEX
  8
0
 10
3.17046
 20
3.02219
 30
0.0
 40
0
 41
0
  0
VERTEX
  8
0
 10
3.14214
 20
3.30263
 30
0.0
 40
0
 41
0
  0
VERTEX
  8
0
 10
3.15582
 20
3.55046
 30
0.0
 40
0
 41
0
  0
VERTEX
  8
0
 10
3.213
 20
3.757
 30
0.0
 40
0
 41
0
  0
VERTEX
  8
0
 10
3.28315
 20
3.88064
 30
0.0
 40
0
 41
0
  0
VERTEX
  8
0
 10
3.31511
 20
3.91351
 30
0.0
 40
0
 41
0
  0
VERTEX
  8
0
 10
3.31819
 20
3.91672
 30
0.0
 40
0
 41
0
  0
VERTEX
  8
0
 10
3.32633
 20
3.92751
 30
0.0
 40
0
 41
0
  0
VERTEX
  8
0
 10
3.3279
 20
3.93494
 30
0.0
 40
0
 41
0
  0
VERTEX
  8
0
 10
3.32314
 20
3.93756
 30
0.0
 40
0
 41
0
  0
VERTEX
  8
0
 10
3.3156
 20
3.93712
 30
0.0
 40
0
 41
0
  0
VERTEX
  8
0
 10
3.3086
 20
3.93539
 30
0.0
 40
0
 41
0
  0
VERTEX
  8
0
 10
3.30567
 20
3.93408
 30
0.0
 40
0
 41
0
  0
VERTEX
  8
0
 10
3.31017
 20
3.9349
 30
0.0
 40
0
 41
0
  0
VERTEX
  8
0
 10
3.32178
 20
3.93837
 30
0.0
 40
0
 41
0
  0
VERTEX
  8
0
 10
3.32563
 20
3.93961
 30
0.0
 40
0
 41
0
  0
VERTEX
  8
0
 10
3.30425
 20
3.94353
 30
0.0
 40
0
 41
0
  0
VERTEX
  8
0
 10
3.23915
 20
3.94949
 30
0.0
 40
0
 41
0
  0
VERTEX
  8
0
 10
3.13715
 20
3.95367
 30
0.0
 40
0
 41
0
  0
VERTEX
  8
0
 10
3.03315
 20
3.95458
 30
0.0
 40
0
 41
0
  0
VERTEX
  8
0
 10
2.96392
 20
3.95454
 30
0.0
 40
0
 41
0
  0
VERTEX
  8
0
 10
2.94086
 20
3.95458
 30
0.0
 40
0
 41
0
  0
VERTEX
  8
0
 10
2.58806
 20
3.96039
 30
0.0
 40
0
 41
0
  0
SEQEND
 8
0
  0
POLYLINE
  8
0
 62
     0
 66
     1
 10
0
 20
0
 30
0.0
 70
     1
 40
2.45171
 41
2.45171
  0
VERTEX
  8
0
 10
2.58806
 20
3.96039
 30
0.0
 40
0.0340515
 41
0.0340515
  0
VERTEX
  8
0
 10
2.56142
 20
3.9605
 30
0.0
 40
0.0340515
 41
0.0340515
  0
VERTEX
  8
0
 10
2.4815
 20
3.96582
 30
0.0
 40
0.0340515
 41
0.0340515
  0
VERTEX
  8
0
 10
2.3909
 20
3.97439
 30
0.0
 40
0.0340515
 41
0.0340515
  0
VERTEX
  8
0
 10
2.30469
 20
3.9764
 30
0.0
 40
0.0340515
 41
0.0340515
  0
VERTEX
  8
0
 10
2.23421
 20
3.96778
 30
0.0
 40
0.0340515
 41
0.0340515
  0
VERTEX
  8
0
 10
2.21153
 20
3.96186
 30
0.0
 40
0.0340515
 41
0.0340515
  0
VERTEX
  8
0
 10
2.21804
 20
3.95942
 30
0.0
 40
0.0340515
 41
0.0340515
  0
VERTEX
  8
0
 10
2.23665
 20
3.94954
 30
0.0
 40
0.0340515
 41
0.0340515
  0
VERTEX
  8
0
 10
2.24393
 20
3.93858
 30
0.0
 40
0.0340515
 41
0.0340515
  0
VERTEX
  8
0
 10
2.24924
 20
3.92329
 30
0.0
 40
0.0340515
 41
0.0340515
  0
VERTEX
  8
0
 10
2.26303
 20
3.90369
 30
0.0
 40
0.0340515
 41
0.0340515
  0
VERTEX
  8
0
 10
2.26856
 20
3.89806
 30
0.0
 40
0.0340515
 41
0.0340515
  0
VERTEX
  8
0
 10
2.30072
 20
3.8654
 30
0.0
 40
0.0340515
 41
0.0340515
  0
VERTEX
  8
0
 10
2.37175
 20
3.74208
 30
0.0
 40
0.0340515
 41
0.0340515
  0
VERTEX
  8
0
 10
2.42947
 20
3.53629
 30
0.0
 40
0.0340515
 41
0.0340515
  0
VERTEX
  8
0
 10
2.44331
 20
3.28933
 30
0.0
 40
0.0340515
 41
0.0340515
  0
VERTEX
  8
0
 10
2.41461
 20
3.00993
 30
0.0
 40
0.0340515
 41
0.0340515
  0
VERTEX
  8
0
 10
2.34489
 20
2.70671
 30
0.0
 40
0.0340515
 41
0.0340515
  0
VERTEX
  8
0
 10
2.23562
 20
2.38835
 30
0.0
 40
0.0340515
 41
0.0340515
  0
VERTEX
  8
0
 10
2.08826
 20
2.06358
 30
0.0
 40
0.0340515
 41
0.0340515
  0
VERTEX
  8
0
 10
1.95389
 20
1.81933
 30
0.0
 40
0.0340515
 41
0.0340515
  0
VERTEX
  8
0
 10
1.90429
 20
1.741
 30
0.0
 40
0.0340515
 41
0.0340515
  0
VERTEX
  8
0
 10
1.87381
 20
1.69293
 30
0.0
 40
0.0340515
 41
0.0340515
  0
VERTEX
  8
0
 10
1.7156
 20
1.46963
 30
0.0
 40
0.0340515
 41
0.0340515
  0
VERTEX
  8
0
 10
1.55181
 20
1.27067
 30
0.0
 40
0.0340515
 41
0.0340515
  0
VERTEX
  8
0
 10
1.51856
 20
1.2347
 30
0.0
 40
0.0340515
 41
0.0340515
  0
VERTEX
  8
0
 10
1.52306
 20
1.2124
 30
0.0
 40
0.0340515
 41
0.0340515
  0
VERTEX
  8
0
 10
1.55919
 20
1.15007
 30
0.0
 40
0.0340515
 41
0.0340515
  0
VERTEX
  8
0
 10
1.63331
 20
1.11133
 30
0.0
 40
0.0340515
 41
0.0340515
  0
VERTEX
  8
0
 10
1.73725
 20
1.10786
 30
0.0
 40
0.0340515
 41
0.0340515
  0
VERTEX
  8
0
 10
1.86724
 20
1.12891
 30
0.0
 40
0.0340515
 41
0.0340515
  0
VERTEX
  8
0
 10
2.01964
 20
1.16374
 30
0.0
 40
0.0340515
 41
0.0340515
  0
VERTEX
  8
0
 10
2.19065
 20
1.20161
 30
0.0
 40
0.0340515
 41
0.0340515
  0
VERTEX
  8
0
 10
2.37668
 20
1.23188
 30
0.0
 40
0.0340515
 41
0.0340515
  0
VERTEX
  8
0
 10
2.52462
 20
1.24392
 30
0.0
 40
0.0340515
 41
0.0340515
  0
VERTEX
  8
0
 10
2.57394
 20
1.24371
 30
0.0
 40
0.0340515
 41
0.0340515
  0
VERTEX
  8
0
 10
3.14908
 20
1.24105
 30
0.0
 40
0.0340515
 41
0.0340515
  0
VERTEX
  8
0
 10
3.19211
 20
1.24089
 30
0.0
 40
0.0340515
 41
0.0340515
  0
VERTEX
  8
0
 10
3.32118
 20
1.23003
 30
0.0
 40
0.0340515
 41
0.0340515
  0
VERTEX
  8
0
 10
3.47575
 20
1.20432
 30
0.0
 40
0.0340515
 41
0.0340515
  0
VERTEX
  8
0
 10
3.61301
 20
1.17285
 30
0.0
 40
0.0340515
 41
0.0340515
  0
VERTEX
  8
0
 10
3.73324
 20
1.14448
 30
0.0
 40
0.0340515
 41
0.0340515
  0
VERTEX
  8
0
 10
3.83658
 20
1.12793
 30
0.0
 40
0.0340515
 41
0.0340515
  0
VERTEX
  8
0
 10
3.92333
 20
1.13211
 30
0.0
 40
0.0340515
 41
0.0340515
  0
VERTEX
  8
0
 10
3.99365
 20
1.16585
 30
0.0
 40
0.0340515
 41
0.0340515
  0
VERTEX
  8
0
 10
4.03808
 20
1.2181
 30
0.0
 40
0.0340515
 41
0.0340515
  0
VERTEX
  8
0
 10
4.04785
 20
1.23796
 30
0.0
 40
0.0340515
 41
0.0340515
  0
VERTEX
  8
0
 10
4.01986
 20
1.26552
 30
0.0
 40
0.0340515
 41
0.0340515
  0
VERTEX
  8
0
 10
3.94049
 20
1.35292
 30
0.0
 40
0.0340515
 41
0.0340515
  0
VERTEX
  8
0
 10
3.85579
 20
1.46376
 30
0.0
 40
0.0340515
 41
0.0340515
  0
VERTEX
  8
0
 10
3.77393
 20
1.58946
 30
0.0
 40
0.0340515
 41
0.0340515
  0
VERTEX
  8
0
 10
3.69993
 20
1.70904
 30
0.0
 40
0.0340515
 41
0.0340515
  0
VERTEX
  8
0
 10
3.67513
 20
1.74875
 30
0.0
 40
0.0340515
 41
0.0340515
  0
VERTEX
  8
0
 10
3.62597
 20
1.82742
 30
0.0
 40
0.0340515
 41
0.0340515
  0
VERTEX
  8
0
 10
3.49317
 20
2.07249
 30
0.0
 40
0.0340515
 41
0.0340515
  0
VERTEX
  8
0
 10
3.34744
 20
2.39844
 30
0.0
 40
0.0340515
 41
0.0340515
  0
VERTEX
  8
0
 10
3.23942
 20
2.71793
 30
0.0
 40
0.0340515
 41
0.0340515
  0
VERTEX
  8
0
 10
3.17046
 20
3.02219
 30
0.0
 40
0.0340515
 41
0.0340515
  0
VERTEX
  8
0
 10
3.14214
 20
3.30263
 30
0.0
 40
0.0340515
 41
0.0340515
  0
VERTEX
  8
0
 10
3.15582
 20
3.55046
 30
0.0
 40
0.0340515
 41
0.0340515
  0
VERTEX
  8
0
 10
3.213
 20
3.757
 30
0.0
 40
0.0340515
 41
0.0340515
  0
VERTEX
  8
0
 10
3.28315
 20
3.88064
 30
0.0
 40
0.0340515
 41
0.0340515
  0
VERTEX
  8
0
 10
3.31511
 20
3.91351
 30
0.0
 40
0.0340515
 41
0.0340515
  0
VERTEX
  8
0
 10
3.31819
 20
3.91672
 30
0.0
 40
0.0340515
 41
0.0340515
  0
VERTEX
  8
0
 10
3.32633
 20
3.92751
 30
0.0
 40
0.0340515
 41
0.0340515
  0
VERTEX
  8
0
 10
3.3279
 20
3.93494
 30
0.0
 40
0.0340515
 41
0.0340515
  0
VERTEX
  8
0
 10
3.32314
 20
3.93756
 30
0.0
 40
0.0340515
 41
0.0340515
  0
VERTEX
  8
0
 10
3.3156
 20
3.93712
 30
0.0
 40
0.0340515
 41
0.0340515
  0
VERTEX
  8
0
 10
3.3086
 20
3.93539
 30
0.0
 40
0.0340515
 41
0.0340515
  0
VERTEX
  8
0
 10
3.30567
 20
3.93408
 30
0.0
 40
0.0340515
 41
0.0340515
  0
VERTEX
  8
0
 10
3.31017
 20
3.9349
 30
0.0
 40
0.0340515
 41
0.0340515
  0
VERTEX
  8
0
 10
3.32178
 20
3.93837
 30
0.0
 40
0.0340515
 41
0.0340515
  0
VERTEX
  8
0
 10
3.32563
 20
3.93961
 30
0.0
 40
0.0340515
 41
0.0340515
  0
VERTEX
  8
0
 10
3.30425
 20
3.94353
 30
0.0
 40
0.0340515
 41
0.0340515
  0
VERTEX
  8
0
 10
3.23915
 20
3.94949
 30
0.0
 40
0.0340515
 41
0.0340515
  0
VERTEX
  8
0
 10
3.13715
 20
3.95367
 30
0.0
 40
0.0340515
 41
0.0340515
  0
VERTEX
  8
0
 10
3.03315
 20
3.95458
 30
0.0
 40
0.0340515
 41
0.0340515
  0
VERTEX
  8
0
 10
2.96392
 20
3.95454
 30
0.0
 40
0.0340515
 41
0.0340515
  0
VERTEX
  8
0
 10
2.94086
 20
3.95458
 30
0.0
 40
0.0340515
 41
0.0340515
  0
VERTEX
  8
0
 10
2.58806
 20
3.96039
 30
0.0
 40
0.0340515
 41
0.0340515
  0
SEQEND
 8
0
  0
POLYLINE
  8
0
 62
     7
 66
     1
 10
0
 20
0
 30
0.0
 70
     1
 40
0
 41
0
  0
VERTEX
  8
0
 10
0.629557
 20
1.24707
 30
0.0
 40
0
 41
0
  0
VERTEX
  8
0
 10
5.08529
 20
1.24707
 30
0.0
 40
0
 41
0
  0
VERTEX
  8
0
 10
5.11626
 20
1.24707
 30
0.0
 40
0
 41
0
  0
VERTEX
  8
0
 10
5.20931
 20
1.23465
 30
0.0
 40
0
 41
0
  0
VERTEX
  8
0
 10
5.32471
 20
1.199
 30
0.0
 40
0
 41
0
  0
VERTEX
  8
0
 10
5.42904
 20
1.14252
 30
0.0
 40
0
 41
0
  0
VERTEX
  8
0
 10
5.51981
 20
1.06765
 30
0.0
 40
0
 41
0
  0
VERTEX
  8
0
 10
5.59467
 20
0.976887
 30
0.0
 40
0
 41
0
  0
VERTEX
  8
0
 10
5.65115
 20
0.872558
 30
0.0
 40
0
 41
0
  0
VERTEX
  8
0
 10
5.68679
 20
0.757215
 30
0.0
 40
0
 41
0
  0
VERTEX
  8
0
 10
5.69928
 20
0.664171
 30
0.0
 40
0
 41
0
  0
VERTEX
  8
0
 10
5.69928
 20
0.633137
 30
0.0
 40
0
 41
0
  0
VERTEX
  8
0
 10
5.69928
 20
0.60216
 30
0.0
 40
0
 41
0
  0
VERTEX
  8
0
 10
5.68679
 20
0.509115
 30
0.0
 40
0
 41
0
  0
VERTEX
  8
0
 10
5.65115
 20
0.393718
 30
0.0
 40
0
 41
0
  0
VERTEX
  8
0
 10
5.59467
 20
0.289387
 30
0.0
 40
0
 41
0
  0
VERTEX
  8
0
 10
5.51981
 20
0.198622
 30
0.0
 40
0
 41
0
  0
VERTEX
  8
0
 10
5.42904
 20
0.123752
 30
0.0
 40
0
 41
0
  0
VERTEX
  8
0
 10
5.32471
 20
0.0672743
 30
0.0
 40
0
 41
0
  0
VERTEX
  8
0
 10
5.20931
 20
0.0316297
 30
0.0
 40
0
 41
0
  0
VERTEX
  8
0
 10
5.11626
 20
0.0191515
 30
0.0
 40
0
 41
0
  0
VERTEX
  8
0
 10
5.08529
 20
0.0191515
 30
0.0
 40
0
 41
0
  0
VERTEX
  8
0
 10
0.629557
 20
0.0191515
 30
0.0
 40
0
 41
0
  0
VERTEX
  8
0
 10
0.598525
 20
0.0191515
 30
0.0
 40
0
 41
0
  0
VERTEX
  8
0
 10
0.505479
 20
0.0316297
 30
0.0
 40
0
 41
0
  0
VERTEX
  8
0
 10
0.390136
 20
0.0672743
 30
0.0
 40
0
 41
0
  0
VERTEX
  8
0
 10
0.285807
 20
0.123752
 30
0.0
 40
0
 41
0
  0
VERTEX
  8
0
 10
0.195042
 20
0.198622
 30
0.0
 40
0
 41
0
  0
VERTEX
  8
0
 10
0.120171
 20
0.289387
 30
0.0
 40
0
 41
0
  0
VERTEX
  8
0
 10
0.0636936
 20
0.393718
 30
0.0
 40
0
 41
0
  0
VERTEX
  8
0
 10
0.028049
 20
0.509115
 30
0.0
 40
0
 41
0
  0
VERTEX
  8
0
 10
0.015625
 20
0.60216
 30
0.0
 40
0
 41
0
  0
VERTEX
  8
0
 10
0.015625
 20
0.633137
 30
0.0
 40
0
 41
0
  0
VERTEX
  8
0
 10
0.015625
 20
0.664171
 30
0.0
 40
0
 41
0
  0
VERTEX
  8
0
 10
0.028049
 20
0.757215
 30
0.0
 40
0
 41
0
  0
VERTEX
  8
0
 10
0.0636936
 20
0.872558
 30
0.0
 40
0
 41
0
  0
VERTEX
  8
0
 10
0.120171
 20
0.976887
 30
0.0
 40
0
 41
0
  0
VERTEX
  8
0
 10
0.195042
 20
1.06765
 30
0.0
 40
0
 41
0
  0
VERTEX
  8
0
 10
0.285807
 20
1.14252
 30
0.0
 40
0
 41
0
  0
VERTEX
  8
0
 10
0.390136
 20
1.199
 30
0.0
 40
0
 41
0
  0
VERTEX
  8
0
 10
0.505479
 20
1.23465
 30
0.0
 40
0
 41
0
  0
VERTEX
  8
0
 10
0.598525
 20
1.24707
 30
0.0
 40
0
 41
0
  0
VERTEX
  8
0
 10
0.629557
 20
1.24707
 30
0.0
 40
0
 41
0
  0
SEQEND
 8
0
  0
POLYLINE
  8
0
 62
     0
 66
     1
 10
0
 20
0
 30
0.0
 70
     1
 40
2.25
 41
2.25
  0
VERTEX
  8
0
 10
0.629557
 20
1.24707
 30
0.0
 40
0.03125
 41
0.03125
  0
VERTEX
  8
0
 10
5.08529
 20
1.24707
 30
0.0
 40
0.03125
 41
0.03125
  0
VERTEX
  8
0
 10
5.11626
 20
1.24707
 30
0.0
 40
0.03125
 41
0.03125
  0
VERTEX
  8
0
 10
5.20931
 20
1.23465
 30
0.0
 40
0.03125
 41
0.03125
  0
VERTEX
  8
0
 10
5.32471
 20
1.199
 30
0.0
 40
0.03125
 41
0.03125
  0
VERTEX
  8
0
 10
5.42904
 20
1.14252
 30
0.0
 40
0.03125
 41
0.03125
  0
VERTEX
  8
0
 10
5.51981
 20
1.06765
 30
0.0
 40
0.03125
 41
0.03125
  0
VERTEX
  8
0
 10
5.59467
 20
0.976887
 30
0.0
 40
0.03125
 41
0.03125
  0
VERTEX
  8
0
 10
5.65115
 20
0.872558
 30
0.0
 40
0.03125
 41
0.03125
  0
VERTEX
  8
0
 10
5.68679
 20
0.757215
 30
0.0
 40
0.03125
 41
0.03125
  0
VERTEX
  8
0
 10
5.69928
 20
0.664171
 30
0.0
 40
0.03125
 41
0.03125
  0
VERTEX
  8
0
 10
5.69928
 20
0.633137
 30
0.0
 40
0.03125
 41
0.03125
  0
VERTEX
  8
0
 10
5.69928
 20
0.60216
 30
0.0
 40
0.03125
 41
0.03125
  0
VERTEX
  8
0
 10
5.68679
 20
0.509115
 30
0.0
 40
0.03125
 41
0.03125
  0
VERTEX
  8
0
 10
5.65115
 20
0.393718
 30
0.0
 40
0.03125
 41
0.03125
  0
VERTEX
  8
0
 10
5.59467
 20
0.289387
 30
0.0
 40
0.03125
 41
0.03125
  0
VERTEX
  8
0
 10
5.51981
 20
0.198622
 30
0.0
 40
0.03125
 41
0.03125
  0
VERTEX
  8
0
 10
5.42904
 20
0.123752
 30
0.0
 40
0.03125
 41
0.03125
  0
VERTEX
  8
0
 10
5.32471
 20
0.0672743
 30
0.0
 40
0.03125
 41
0.03125
  0
VERTEX
  8
0
 10
5.20931
 20
0.0316297
 30
0.0
 40
0.03125
 41
0.03125
  0
VERTEX
  8
0
 10
5.11626
 20
0.0191515
 30
0.0
 40
0.03125
 41
0.03125
  0
VERTEX
  8
0
 10
5.08529
 20
0.0191515
 30
0.0
 40
0.03125
 41
0.03125
  0
VERTEX
  8
0
 10
0.629557
 20
0.0191515
 30
0.0
 40
0.03125
 41
0.03125
  0
VERTEX
  8
0
 10
0.598525
 20
0.0191515
 30
0.0
 40
0.03125
 41
0.03125
  0
VERTEX
  8
0
 10
0.505479
 20
0.0316297
 30
0.0
 40
0.03125
 41
0.03125
  0
VERTEX
  8
0
 10
0.390136
 20
0.0672743
 30
0.0
 40
0.03125
 41
0.03125
  0
VERTEX
  8
0
 10
0.285807
 20
0.123752
 30
0.0
 40
0.03125
 41
0.03125
  0
VERTEX
  8
0
 10
0.195042
 20
0.198622
 30
0.0
 40
0.03125
 41
0.03125
  0
VERTEX
  8
0
 10
0.120171
 20
0.289387
 30
0.0
 40
0.03125
 41
0.03125
  0
VERTEX
  8
0
 10
0.0636936
 20
0.393718
 30
0.0
 40
0.03125
 41
0.03125
  0
VERTEX
  8
0
 10
0.028049
 20
0.509115
 30
0.0
 40
0.03125
 41
0.03125
  0
VERTEX
  8
0
 10
0.015625
 20
0.60216
 30
0.0
 40
0.03125
 41
0.03125
  0
VERTEX
  8
0
 10
0.015625
 20
0.633137
 30
0.0
 40
0.03125
 41
0.03125
  0
VERTEX
  8
0
 10
0.015625
 20
0.664171
 30
0.0
 40
0.03125
 41
0.03125
  0
VERTEX
  8
0
 10
0.028049
 20
0.757215
 30
0.0
 40
0.03125
 41
0.03125
  0
VERTEX
  8
0
 10
0.0636936
 20
0.872558
 30
0.0
 40
0.03125
 41
0.03125
  0
VERTEX
  8
0
 10
0.120171
 20
0.976887
 30
0.0
 40
0.03125
 41
0.03125
  0
VERTEX
  8
0
 10
0.195042
 20
1.06765
 30
0.0
 40
0.03125
 41
0.03125
  0
VERTEX
  8
0
 10
0.285807
 20
1.14252
 30
0.0
 40
0.03125
 41
0.03125
  0
VERTEX
  8
0
 10
0.390136
 20
1.199
 30
0.0
 40
0.03125
 41
0.03125
  0
VERTEX
  8
0
 10
0.505479
 20
1.23465
 30
0.0
 40
0.03125
 41
0.03125
  0
VERTEX
  8
0
 10
0.598525
 20
1.24707
 30
0.0
 40
0.03125
 41
0.03125
  0
VERTEX
  8
0
 10
0.629557
 20
1.24707
 30
0.0
 40
0.03125
 41
0.03125
  0
SEQEND
 8
0
  0
POLYLINE
  8
0
 62
     7
 66
     1
 10
0
 20
0
 30
0.0
 70
     1
 40
0
 41
0
  0
VERTEX
  8
0
 10
1.85607
 20
2.11361
 30
0.0
 40
0
 41
0
  0
VERTEX
  8
0
 10
1.81153
 20
2.053
 30
0.0
 40
0
 41
0
  0
VERTEX
  8
0
 10
1.66607
 20
1.87978
 30
0.0
 40
0
 41
0
  0
VERTEX
  8
0
 10
1.46322
 20
1.67617
 30
0.0
 40
0
 41
0
  0
VERTEX
  8
0
 10
1.25363
 20
1.50825
 30
0.0
 40
0
 41
0
  0
VERTEX
  8
0
 10
1.09798
 20
1.40886
 30
0.0
 40
0
 41
0
  0
VERTEX
  8
0
 10
1.04324
 20
1.38146
 30
0.0
 40
0
 41
0
  0
VERTEX
  8
0
 10
0.995117
 20
1.35742
 30
0.0
 40
0
 41
0
  0
VERTEX
  8
0
 10
0.842122
 20
1.30246
 30
0.0
 40
0
 41
0
  0
VERTEX
  8
0
 10
0.659885
 20
1.27431
 30
0.0
 40
0
 41
0
  0
VERTEX
  8
0
 10
0.501357
 20
1.2972
 30
0.0
 40
0
 41
0
  0
VERTEX
  8
0
 10
0.399143
 20
1.34706
 30
0.0
 40
0
 41
0
  0
VERTEX
  8
0
 10
0.371636
 20
1.37109
 30
0.0
 40
0
 41
0
  0
VERTEX
  8
0
 10
0.342339
 20
1.39675
 30
0.0
 40
0
 41
0
  0
VERTEX
  8
0
 10
0.274957
 20
1.49713
 30
0.0
 40
0
 41
0
  0
VERTEX
  8
0
 10
0.220811
 20
1.66342
 30
0.0
 40
0
 41
0
  0
VERTEX
  8
0
 10
0.207844
 20
1.8629
 30
0.0
 40
0
 41
0
  0
VERTEX
  8
0
 10
0.2347
 20
2.0886
 30
0.0
 40
0
 41
0
  0
VERTEX
  8
0
 10
0.299968
 20
2.33356
 30
0.0
 40
0
 41
0
  0
VERTEX
  8
0
 10
0.402289
 20
2.59071
 30
0.0
 40
0
 41
0
  0
VERTEX
  8
0
 10
0.54031
 20
2.85314
 30
0.0
 40
0
 41
0
  0
VERTEX
  8
0
 10
0.666504
 20
3.05083
 30
0.0
 40
0
 41
0
  0
VERTEX
  8
0
 10
0.712674
 20
3.11367
 30
0.0
 40
0
 41
0
  0
VERTEX
  8
0
 10
0.757161
 20
3.17432
 30
0.0
 40
0
 41
0
  0
VERTEX
  8
0
 10
0.902615
 20
3.34754
 30
0.0
 40
0
 41
0
  0
VERTEX
  8
0
 10
1.10547
 20
3.55111
 30
0.0
 40
0
 41
0
  0
VERTEX
  8
0
 10
1.3151
 20
3.71907
 30
0.0
 40
0
 41
0
  0
VERTEX
  8
0
 10
1.47076
 20
3.81847
 30
0.0
 40
0
 41
0
  0
VERTEX
  8
0
 10
1.52556
 20
3.84581
 30
0.0
 40
0
 41
0
  0
VERTEX
  8
0
 10
1.57363
 20
3.8699
 30
0.0
 40
0
 41
0
  0
VERTEX
  8
0
 10
1.72657
 20
3.92486
 30
0.0
 40
0
 41
0
  0
VERTEX
  8
0
 10
1.90886
 20
3.95296
 30
0.0
 40
0
 41
0
  0
VERTEX
  8
0
 10
2.06739
 20
3.93012
 30
0.0
 40
0
 41
0
  0
VERTEX
  8
0
 10
2.1696
 20
3.88026
 30
0.0
 40
0
 41
0
  0
VERTEX
  8
0
 10
2.19715
 20
3.85618
 30
0.0
 40
0
 41
0
  0
VERTEX
  8
0
 10
2.22558
 20
3.83128
 30
0.0
 40
0
 41
0
  0
VERTEX
  8
0
 10
2.29144
 20
3.7341
 30
0.0
 40
0
 41
0
  0
VERTEX
  8
0
 10
2.3464
 20
3.57026
 30
0.0
 40
0
 41
0
  0
VERTEX
  8
0
 10
2.36094
 20
3.37001
 30
0.0
 40
0
 41
0
  0
VERTEX
  8
0
 10
2.34517
 20
3.19564
 30
0.0
 40
0
 41
0
  0
VERTEX
  8
0
 10
2.33404
 20
3.13867
 30
0.0
 40
0
 41
0
  0
VERTEX
  8
0
 10
2.32156
 20
3.07493
 30
0.0
 40
0
 41
0
  0
VERTEX
  8
0
 10
2.26639
 20
2.88699
 30
0.0
 40
0
 41
0
  0
VERTEX
  8
0
 10
2.16183
 20
2.62717
 30
0.0
 40
0
 41
0
  0
VERTEX
  8
0
 10
2.02387
 20
2.36686
 30
0.0
 40
0
 41
0
  0
VERTEX
  8
0
 10
1.90093
 20
2.17475
 30
0.0
 40
0
 41
0
  0
VERTEX
  8
0
 10
1.85607
 20
2.11361
 30
0.0
 40
0
 41
0
  0
SEQEND
 8
0
  0
POLYLINE
  8
0
 62
     0
 66
     1
 10
0
 20
0
 30
0.0
 70
     1
 40
2.10797
 41
2.10797
  0
VERTEX
  8
0
 10
1.85607
 20
2.11361
 30
0.0
 40
0.0292774
 41
0.0292774
  0
VERTEX
  8
0
 10
1.81153
 20
2.053
 30
0.0
 40
0.0292774
 41
0.0292774
  0
VERTEX
  8
0
 10
1.66607
 20
1.87978
 30
0.0
 40
0.0292774
 41
0.0292774
  0
VERTEX
  8
0
 10
1.46322
 20
1.67617
 30
0.0
 40
0.0292774
 41
0.0292774
  0
VERTEX
  8
0
 10
1.25363
 20
1.50825
 30
0.0
 40
0.0292774
 41
0.0292774
  0
VERTEX
  8
0
 10
1.09798
 20
1.40886
 30
0.0
 40
0.0292774
 41
0.0292774
  0
VERTEX
  8
0
 10
1.04324
 20
1.38146
 30
0.0
 40
0.0292774
 41
0.0292774
  0
VERTEX
  8
0
 10
0.995118
 20
1.35742
 30
0.0
 40
0.0292774
 41
0.0292774
  0
VERTEX
  8
0
 10
0.842122
 20
1.30246
 30
0.0
 40
0.0292774
 41
0.0292774
  0
VERTEX
  8
0
 10
0.659885
 20
1.27431
 30
0.0
 40
0.0292774
 41
0.0292774
  0
VERTEX
  8
0
 10
0.501357
 20
1.2972
 30
0.0
 40
0.0292774
 41
0.0292774
  0
VERTEX
  8
0
 10
0.399143
 20
1.34706
 30
0.0
 40
0.0292774
 41
0.0292774
  0
VERTEX
  8
0
 10
0.371636
 20
1.37109
 30
0.0
 40
0.0292774
 41
0.0292774
  0
VERTEX
  8
0
 10
0.342339
 20
1.39675
 30
0.0
 40
0.0292774
 41
0.0292774
  0
VERTEX
  8
0
 10
0.274957
 20
1.49713
 30
0.0
 40
0.0292774
 41
0.0292774
  0
VERTEX
  8
0
 10
0.220811
 20
1.66342
 30
0.0
 40
0.0292774
 41
0.0292774
  0
VERTEX
  8
0
 10
0.207844
 20
1.8629
 30
0.0
 40
0.0292774
 41
0.0292774
  0
VERTEX
  8
0
 10
0.2347
 20
2.0886
 30
0.0
 40
0.0292774
 41
0.0292774
  0
VERTEX
  8
0
 10
0.299968
 20
2.33356
 30
0.0
 40
0.0292774
 41
0.0292774
  0
VERTEX
  8
0
 10
0.40229
 20
2.59071
 30
0.0
 40
0.0292774
 41
0.0292774
  0
VERTEX
  8
0
 10
0.540311
 20
2.85314
 30
0.0
 40
0.0292774
 41
0.0292774
  0
VERTEX
  8
0
 10
0.666504
 20
3.05083
 30
0.0
 40
0.0292774
 41
0.0292774
  0
VERTEX
  8
0
 10
0.712674
 20
3.11367
 30
0.0
 40
0.0292774
 41
0.0292774
  0
VERTEX
  8
0
 10
0.757161
 20
3.17432
 30
0.0
 40
0.0292774
 41
0.0292774
  0
VERTEX
  8
0
 10
0.902615
 20
3.34754
 30
0.0
 40
0.0292774
 41
0.0292774
  0
VERTEX
  8
0
 10
1.10547
 20
3.55111
 30
0.0
 40
0.0292774
 41
0.0292774
  0
VERTEX
  8
0
 10
1.3151
 20
3.71907
 30
0.0
 40
0.0292774
 41
0.0292774
  0
VERTEX
  8
0
 10
1.47076
 20
3.81847
 30
0.0
 40
0.0292774
 41
0.0292774
  0
VERTEX
  8
0
 10
1.52556
 20
3.84581
 30
0.0
 40
0.0292774
 41
0.0292774
  0
VERTEX
  8
0
 10
1.57363
 20
3.8699
 30
0.0
 40
0.0292774
 41
0.0292774
  0
VERTEX
  8
0
 10
1.72657
 20
3.92486
 30
0.0
 40
0.0292774
 41
0.0292774
  0
VERTEX
  8
0
 10
1.90886
 20
3.95296
 30
0.0
 40
0.0292774
 41
0.0292774
  0
VERTEX
  8
0
 10
2.06739
 20
3.93012
 30
0.0
 40
0.0292774
 41
0.0292774
  0
VERTEX
  8
0
 10
2.1696
 20
3.88026
 30
0.0
 40
0.0292774
 41
0.0292774
  0
VERTEX
  8
0
 10
2.19715
 20
3.85618
 30
0.0
 40
0.0292774
 41
0.0292774
  0
VERTEX
  8
0
 10
2.22558
 20
3.83128
 30
0.0
 40
0.0292774
 41
0.0292774
  0
VERTEX
  8
0
 10
2.29144
 20
3.7341
 30
0.0
 40
0.0292774
 41
0.0292774
  0
VERTEX
  8
0
 10
2.3464
 20
3.57026
 30
0.0
 40
0.0292774
 41
0.0292774
  0
VERTEX
  8
0
 10
2.36094
 20
3.37001
 30
0.0
 40
0.0292774
 41
0.0292774
  0
VERTEX
  8
0
 10
2.34517
 20
3.19564
 30
0.0
 40
0.0292774
 41
0.0292774
  0
VERTEX
  8
0
 10
2.33404
 20
3.13867
 30
0.0
 40
0.0292774
 41
0.0292774
  0
VERTEX
  8
0
 10
2.32156
 20
3.07493
 30
0.0
 40
0.0292774
 41
0.0292774
  0
VERTEX
  8
0
 10
2.26639
 20
2.88699
 30
0.0
 40
0.0292774
 41
0.0292774
  0
VERTEX
  8
0
 10
2.16183
 20
2.62717
 30
0.0
 40
0.0292774
 41
0.0292774
  0
VERTEX
  8
0
 10
2.02387
 20
2.36686
 30
0.0
 40
0.0292774
 41
0.0292774
  0
VERTEX
  8
0
 10
1.90093
 20
2.17475
 30
0.0
 40
0.0292774
 41
0.0292774
  0
VERTEX
  8
0
 10
1.85607
 20
2.11361
 30
0.0
 40
0.0292774
 41
0.0292774
  0
SEQEND
 8
0
  0
POLYLINE
  8
0
 62
     7
 66
     1
 10
0
 20
0
 30
0.0
 70
     1
 40
0
 41
0
  0
VERTEX
  8
0
 10
3.68381
 20
2.09283
 30
0.0
 40
0
 41
0
  0
VERTEX
  8
0
 10
3.72889
 20
2.03196
 30
0.0
 40
0
 41
0
  0
VERTEX
  8
0
 10
3.87614
 20
1.85813
 30
0.0
 40
0
 41
0
  0
VERTEX
  8
0
 10
4.08149
 20
1.65381
 30
0.0
 40
0
 41
0
  0
VERTEX
  8
0
 10
4.29368
 20
1.48529
 30
0.0
 40
0
 41
0
  0
VERTEX
  8
0
 10
4.45128
 20
1.38552
 30
0.0
 40
0
 41
0
  0
VERTEX
  8
0
 10
4.50672
 20
1.35802
 30
0.0
 40
0
 41
0
  0
VERTEX
  8
0
 10
4.55544
 20
1.33388
 30
0.0
 40
0
 41
0
  0
VERTEX
  8
0
 10
4.71024
 20
1.27875
 30
0.0
 40
0
 41
0
  0
VERTEX
  8
0
 10
4.89481
 20
1.25054
 30
0.0
 40
0
 41
0
  0
VERTEX
  8
0
 10
5.05528
 20
1.27344
 30
0.0
 40
0
 41
0
  0
VERTEX
  8
0
 10
5.15875
 20
1.32341
 30
0.0
 40
0
 41
0
  0
VERTEX
  8
0
 10
5.18668
 20
1.3476
 30
0.0
 40
0
 41
0
  0
VERTEX
  8
0
 10
5.21625
 20
1.37332
 30
0.0
 40
0
 41
0
  0
VERTEX
  8
0
 10
5.2845
 20
1.47413
 30
0.0
 40
0
 41
0
  0
VERTEX
  8
0
 10
5.33931
 20
1.64094
 30
0.0
 40
0
 41
0
  0
VERTEX
  8
0
 10
5.35243
 20
1.84119
 30
0.0
 40
0
 41
0
  0
VERTEX
  8
0
 10
5.32525
 20
2.06776
 30
0.0
 40
0
 41
0
  0
VERTEX
  8
0
 10
5.25917
 20
2.31358
 30
0.0
 40
0
 41
0
  0
VERTEX
  8
0
 10
5.15554
 20
2.57167
 30
0.0
 40
0
 41
0
  0
VERTEX
  8
0
 10
5.01579
 20
2.83496
 30
0.0
 40
0
 41
0
  0
VERTEX
  8
0
 10
4.88807
 20
3.03342
 30
0.0
 40
0
 41
0
  0
VERTEX
  8
0
 10
4.84136
 20
3.09646
 30
0.0
 40
0
 41
0
  0
VERTEX
  8
0
 10
4.79622
 20
3.15739
 30
0.0
 40
0
 41
0
  0
VERTEX
  8
0
 10
4.64899
 20
3.33122
 30
0.0
 40
0
 41
0
  0
VERTEX
  8
0
 10
4.44368
 20
3.53554
 30
0.0
 40
0
 41
0
  0
VERTEX
  8
0
 10
4.23144
 20
3.70404
 30
0.0
 40
0
 41
0
  0
VERTEX
  8
0
 10
4.07383
 20
3.80382
 30
0.0
 40
0
 41
0
  0
VERTEX
  8
0
 10
4.01844
 20
3.83128
 30
0.0
 40
0
 41
0
  0
VERTEX
  8
0
 10
3.96967
 20
3.85547
 30
0.0
 40
0
 41
0
  0
VERTEX
  8
0
 10
3.81489
 20
3.9106
 30
0.0
 40
0
 41
0
  0
VERTEX
  8
0
 10
3.63032
 20
3.93881
 30
0.0
 40
0
 41
0
  0
VERTEX
  8
0
 10
3.46989
 20
3.9159
 30
0.0
 40
0
 41
0
  0
VERTEX
  8
0
 10
3.36643
 20
3.86594
 30
0.0
 40
0
 41
0
  0
VERTEX
  8
0
 10
3.33854
 20
3.84169
 30
0.0
 40
0
 41
0
  0
VERTEX
  8
0
 10
3.30974
 20
3.81674
 30
0.0
 40
0
 41
0
  0
VERTEX
  8
0
 10
3.243
 20
3.71913
 30
0.0
 40
0
 41
0
  0
VERTEX
  8
0
 10
3.18739
 20
3.55474
 30
0.0
 40
0
 41
0
  0
VERTEX
  8
0
 10
3.17269
 20
3.35379
 30
0.0
 40
0
 41
0
  0
VERTEX
  8
0
 10
3.18864
 20
3.17876
 30
0.0
 40
0
 41
0
  0
VERTEX
  8
0
 10
3.19993
 20
3.12158
 30
0.0
 40
0
 41
0
  0
VERTEX
  8
0
 10
3.21257
 20
3.05757
 30
0.0
 40
0
 41
0
  0
VERTEX
  8
0
 10
3.26839
 20
2.86903
 30
0.0
 40
0
 41
0
  0
VERTEX
  8
0
 10
3.37424
 20
2.60829
 30
0.0
 40
0
 41
0
  0
VERTEX
  8
0
 10
3.51389
 20
2.347
 30
0.0
 40
0
 41
0
  0
VERTEX
  8
0
 10
3.63835
 20
2.15419
 30
0.0
 40
0
 41
0
  0
VERTEX
  8
0
 10
3.68381
 20
2.09283
 30
0.0
 40
0
 41
0
  0
SEQEND
 8
0
  0
POLYLINE
  8
0
 62
     0
 66
     1
 10
0
 20
0
 30
0.0
 70
     1
 40
2.14267
 41
2.14267
  0
VERTEX
  8
0
 10
3.68381
 20
2.09283
 30
0.0
 40
0.0297593
 41
0.0297593
  0
VERTEX
  8
0
 10
3.72889
 20
2.03196
 30
0.0
 40
0.0297593
 41
0.0297593
  0
VERTEX
  8
0
 10
3.87614
 20
1.85813
 30
0.0
 40
0.0297593
 41
0.0297593
  0
VERTEX
  8
0
 10
4.08149
 20
1.65381
 30
0.0
 40
0.0297593
 41
0.0297593
  0
VERTEX
  8
0
 10
4.29368
 20
1.48529
 30
0.0
 40
0.0297593
 41
0.0297593
  0
VERTEX
  8
0
 10
4.45128
 20
1.38552
 30
0.0
 40
0.0297593
 41
0.0297593
  0
VERTEX
  8
0
 10
4.50672
 20
1.35802
 30
0.0
 40
0.0297593
 41
0.0297593
  0
VERTEX
  8
0
 10
4.55544
 20
1.33388
 30
0.0
 40
0.0297593
 41
0.0297593
  0
VERTEX
  8
0
 10
4.71024
 20
1.27875
 30
0.0
 40
0.0297593
 41
0.0297593
  0
VERTEX
  8
0
 10
4.89481
 20
1.25054
 30
0.0
 40
0.0297593
 41
0.0297593
  0
VERTEX
  8
0
 10
5.05528
 20
1.27344
 30
0.0
 40
0.0297593
 41
0.0297593
  0
VERTEX
  8
0
 10
5.15875
 20
1.32341
 30
0.0
 40
0.0297593
 41
0.0297593
  0
VERTEX
  8
0
 10
5.18668
 20
1.3476
 30
0.0
 40
0.0297593
 41
0.0297593
  0
VERTEX
  8
0
 10
5.21625
 20
1.37332
 30
0.0
 40
0.0297593
 41
0.0297593
  0
VERTEX
  8
0
 10
5.2845
 20
1.47413
 30
0.0
 40
0.0297593
 41
0.0297593
  0
VERTEX
  8
0
 10
5.33931
 20
1.64094
 30
0.0
 40
0.0297593
 41
0.0297593
  0
VERTEX
  8
0
 10
5.35243
 20
1.84119
 30
0.0
 40
0.0297593
 41
0.0297593
  0
VERTEX
  8
0
 10
5.32525
 20
2.06776
 30
0.0
 40
0.0297593
 41
0.0297593
  0
VERTEX
  8
0
 10
5.25917
 20
2.31358
 30
0.0
 40
0.0297593
 41
0.0297593
  0
VERTEX
  8
0
 10
5.15554
 20
2.57167
 30
0.0
 40
0.0297593
 41
0.0297593
  0
VERTEX
  8
0
 10
5.01579
 20
2.83496
 30
0.0
 40
0.0297593
 41
0.0297593
  0
VERTEX
  8
0
 10
4.88807
 20
3.03342
 30
0.0
 40
0.0297593
 41
0.0297593
  0
VERTEX
  8
0
 10
4.84136
 20
3.09646
 30
0.0
 40
0.0297593
 41
0.0297593
  0
VERTEX
  8
0
 10
4.79622
 20
3.15739
 30
0.0
 40
0.0297593
 41
0.0297593
  0
VERTEX
  8
0
 10
4.64899
 20
3.33122
 30
0.0
 40
0.0297593
 41
0.0297593
  0
VERTEX
  8
0
 10
4.44368
 20
3.53554
 30
0.0
 40
0.0297593
 41
0.0297593
  0
VERTEX
  8
0
 10
4.23144
 20
3.70404
 30
0.0
 40
0.0297593
 41
0.0297593
  0
VERTEX
  8
0
 10
4.07383
 20
3.80382
 30
0.0
 40
0.0297593
 41
0.0297593
  0
VERTEX
  8
0
 10
4.01844
 20
3.83128
 30
0.0
 40
0.0297593
 41
0.0297593
  0
VERTEX
  8
0
 10
3.96967
 20
3.85547
 30
0.0
 40
0.0297593
 41
0.0297593
  0
VERTEX
  8
0
 10
3.81489
 20
3.9106
 30
0.0
 40
0.0297593
 41
0.0297593
  0
VERTEX
  8
0
 10
3.63032
 20
3.93881
 30
0.0
 40
0.0297593
 41
0.0297593
  0
VERTEX
  8
0
 10
3.46989
 20
3.9159
 30
0.0
 40
0.0297593
 41
0.0297593
  0
VERTEX
  8
0
 10
3.36643
 20
3.86594
 30
0.0
 40
0.0297593
 41
0.0297593
  0
VERTEX
  8
0
 10
3.33854
 20
3.84169
 30
0.0
 40
0.0297593
 41
0.0297593
  0
VERTEX
  8
0
 10
3.30974
 20
3.81674
 30
0.0
 40
0.0297593
 41
0.0297593
  0
VERTEX
  8
0
 10
3.243
 20
3.71913
 30
0.0
 40
0.0297593
 41
0.0297593
  0
VERTEX
  8
0
 10
3.18739
 20
3.55474
 30
0.0
 40
0.0297593
 41
0.0297593
  0
VERTEX
  8
0
 10
3.17269
 20
3.35379
 30
0.0
 40
0.0297593
 41
0.0297593
  0
VERTEX
  8
0
 10
3.18864
 20
3.17876
 30
0.0
 40
0.0297593
 41
0.0297593
  0
VERTEX
  8
0
 10
3.19993
 20
3.12158
 30
0.0
 40
0.0297593
 41
0.0297593
  0
VERTEX
  8
0
 10
3.21257
 20
3.05757
 30
0.0
 40
0.0297593
 41
0.0297593
  0
VERTEX
  8
0
 10
3.26839
 20
2.86903
 30
0.0
 40
0.0297593
 41
0.0297593
  0
VERTEX
  8
0
 10
3.37424
 20
2.60829
 30
0.0
 40
0.0297593
 41
0.0297593
  0
VERTEX
  8
0
 10
3.51389
 20
2.347
 30
0.0
 40
0.0297593
 41
0.0297593
  0
VERTEX
  8
0
 10
3.63835
 20
2.15419
 30
0.0
 40
0.0297593
 41
0.0297593
  0
VERTEX
  8
0
 10
3.68381
 20
2.09283
 30
0.0
 40
0.0297593
 41
0.0297593
  0
SEQEND
 8
0
  0
ENDSEC
  0
EOF
