<?xml version="1.0" encoding="UTF-8" standalone="no"?>
<!-- Created with Inkscape (http://www.inkscape.org/) -->

<svg
   xmlns:dc="http://purl.org/dc/elements/1.1/"
   xmlns:cc="http://creativecommons.org/ns#"
   xmlns:rdf="http://www.w3.org/1999/02/22-rdf-syntax-ns#"
   xmlns:svg="http://www.w3.org/2000/svg"
   xmlns="http://www.w3.org/2000/svg"
   xmlns:sodipodi="http://sodipodi.sourceforge.net/DTD/sodipodi-0.dtd"
   xmlns:inkscape="http://www.inkscape.org/namespaces/inkscape"
   width="548.62781"
   height="460.99261"
   id="svg2"
   version="1.1"
   inkscape:version="0.92.3 (2405546, 2018-03-11)"
   sodipodi:docname="mintzberg-chart2.svg">
  <metadata
     id="metadata13">
    <rdf:RDF>
      <cc:Work
         rdf:about="">
        <dc:format>image/svg+xml</dc:format>
        <dc:type
           rdf:resource="http://purl.org/dc/dcmitype/StillImage" />
        <dc:title></dc:title>
      </cc:Work>
    </rdf:RDF>
  </metadata>
  <sodipodi:namedview
     pagecolor="#ffffff"
     bordercolor="#666666"
     borderopacity="1"
     objecttolerance="10"
     gridtolerance="10"
     guidetolerance="10"
     inkscape:pageopacity="0"
     inkscape:pageshadow="2"
     inkscape:window-width="1600"
     inkscape:window-height="845"
     id="namedview11"
     showgrid="false"
     inkscape:zoom="2.559694"
     inkscape:cx="243.06017"
     inkscape:cy="386.76499"
     inkscape:window-x="0"
     inkscape:window-y="0"
     inkscape:window-maximized="1"
     inkscape:current-layer="svg2" />
  <defs
     id="defs4" />
  <g
     transform="translate(-70.220375,-60.745968)"
     id="g8">
    <path
       style="fill:#ffffff;fill-opacity:1;fill-rule:evenodd;stroke:#000000;stroke-width:3.23242879;stroke-linecap:round;stroke-linejoin:round;stroke-miterlimit:4;stroke-dasharray:none;stroke-opacity:1"
       d="m 280,62.362183 h 110 c 22.16,0 40,17.84 40,39.999997 0,22.16 -17.84,40 -40,40 H 280 c -22.16,0 -40,-17.84 -40,-40 0,-22.159997 17.84,-39.999997 40,-39.999997 z"
       id="apex" />
    <path
       style="fill:#ffffff;fill-opacity:1;stroke:#000000;stroke-width:3.26894951;stroke-linecap:round;stroke-linejoin:round;stroke-miterlimit:4;stroke-dasharray:none;stroke-opacity:1"
       d="m 318.67577,141.88278 c -15.14423,-0.0667 -23.28461,-0.15503 -36.14977,-0.14079 5.04945,1.9018 -0.22188,-0.73514 3.81573,3.35962 32.36094,32.81899 18.35486,128.28965 -33.31127,209.84143 -11.70297,18.4724 -24.24688,34.80062 -37.03125,48.6066 5.80371,28.47375 34.23235,-1.09618 85.84961,-0.86876 l 70.68164,0.25973 c 46.31807,0.20407 74.47064,24.42437 86.28571,0.29324 -16.02632,-15.77535 -21.20889,-25.68221 -35.78571,-49.0329 -51.09174,-81.84414 -66.56367,-174.88439 -34.5625,-207.82104 4.42447,-4.55382 -4.62574,-0.6427 1.01411,-2.50183 -9.49261,-1.72498 -26.44293,-1.39346 -36.94073,-1.43971 z"
       id="middle"
       inkscape:connector-curvature="0"
       sodipodi:nodetypes="ccssccccscccc" />
    <path
       style="fill:#ffffff;fill-opacity:1;fill-rule:evenodd;stroke:#000000;stroke-width:3;stroke-linecap:round;stroke-linejoin:round;stroke-miterlimit:4;stroke-dasharray:none;stroke-opacity:1"
       d="m 130.65857,402.36218 h 427.75141 c 32.65177,0 58.9382,26.28644 58.9382,58.9382 0,32.65176 -26.28643,58.93819 -58.9382,58.93819 H 130.65857 c -32.651759,0 -58.938195,-26.28643 -58.938195,-58.93819 0,-32.65176 26.286436,-58.9382 58.938195,-58.9382 z"
       id="operating" />
    <path
       style="fill:#ffffff;fill-opacity:1;stroke:#000000;stroke-width:2.37523556;stroke-linecap:round;stroke-linejoin:round;stroke-miterlimit:4;stroke-dasharray:none;stroke-opacity:1"
       d="m 245.46707,701.33417 a 61.619305,122.73354 0 0 1 -61.61931,122.73354 61.619305,122.73354 0 0 1 -61.6193,-122.73354 61.619305,122.73354 0 0 1 61.6193,-122.73355 61.619305,122.73354 0 0 1 61.61931,122.73355 z"
       id="techno" />
    <path
       style="fill:#ffffff;fill-opacity:1;stroke:#000000;stroke-width:2.39376307;stroke-linecap:round;stroke-linejoin:round;stroke-miterlimit:4;stroke-dasharray:none;stroke-opacity:1"
       d="m 245.46707,701.33417 a 61.619305,122.73354 0 0 1 -61.61931,122.73354 61.619305,122.73354 0 0 1 -61.6193,-122.73354 61.619305,122.73354 0 0 1 61.6193,-122.73355 61.619305,122.73354 0 0 1 61.61931,122.73355 z"
       id="support" />
  </g>
</svg>
